<svg width="450" height="568" viewBox="0 0 450 568" fill="none" xmlns="http://www.w3.org/2000/svg">
<path d="M2.00002 199.5C2.58237 160.264 5.63627 138.263 38.5 99C30.8929 58.5784 33.5843 37.5688 48.5 2.49997L96.5 14L143 43C207.046 27.6371 242.954 27.4132 307 43C334.036 22.1921 361.063 2.403 405.5 2.5C417.907 51.0808 414.955 67.1801 404 89.5C434.269 122.793 442.898 141.853 444.5 176.5C454.567 227.151 442.672 314.95 425 307.5C401.171 338.124 377.784 352.673 293.5 367.5C311.477 389.104 317.796 398.978 318 410C320.167 456.863 318 481.5 318 528C328.493 543.819 326.5 546.5 343.5 553.5C360.5 560.5 338 566 338 566H116C116 566 110.5 559 116 553.5C130.492 548.588 136.371 543.532 140.5 528V410C146.008 396.936 151.854 383.675 167.5 363.5C93.1595 351.424 60.6719 338.353 30.5 296C11.0367 269.164 4.78262 248.055 2.00002 199.5Z" fill="#0D0B0B" stroke="black" stroke-width="3"/>
<path d="M328 203C267.5 218 280 300.5 328 300.5C376 300.5 367.132 223.356 328 203Z" fill="white"/>
<path d="M102.5 242C131.922 190.066 146.392 195.32 170 242C172.204 283.745 164.175 295.395 137.5 300.5C109.105 290.559 101.561 277.644 102.5 242Z" fill="white"/>
<path d="M328 203C267.5 218 280 300.5 328 300.5C376 300.5 367.132 223.356 328 203Z" stroke="black" stroke-width="5"/>
<path d="M102.5 242C131.922 190.066 146.392 195.32 170 242C172.204 283.745 164.175 295.395 137.5 300.5C109.105 290.559 101.561 277.644 102.5 242Z" stroke="black" stroke-width="5"/>
</svg>
